solid ASCII
  facet normal 9.986295e-01 5.233596e-02 0.000000e+00
    outer loop
      vertex   2.508217e+00 -2.015679e+01 3.000000e+00
      vertex   2.508217e+00 -2.015679e+01 0.000000e+00
      vertex   2.500000e+00 -2.000000e+01 3.000000e+00
    endloop
  endfacet
  facet normal 9.986295e-01 5.233596e-02 0.000000e+00
    outer loop
      vertex   2.500000e+00 -2.000000e+01 3.000000e+00
      vertex   2.508217e+00 -2.015679e+01 0.000000e+00
      vertex   2.500000e+00 -2.000000e+01 0.000000e+00
    endloop
  endfacet
  facet normal 9.986295e-01 -5.233596e-02 0.000000e+00
    outer loop
      vertex   2.500000e+00 -2.000000e+01 3.000000e+00
      vertex   2.500000e+00 -2.000000e+01 0.000000e+00
      vertex   2.508217e+00 -1.984321e+01 3.000000e+00
    endloop
  endfacet
  facet normal 9.986295e-01 -5.233596e-02 0.000000e+00
    outer loop
      vertex   2.508217e+00 -1.984321e+01 3.000000e+00
      vertex   2.500000e+00 -2.000000e+01 0.000000e+00
      vertex   2.508217e+00 -1.984321e+01 0.000000e+00
    endloop
  endfacet
  facet normal 9.876883e-01 -1.564345e-01 0.000000e+00
    outer loop
      vertex   2.508217e+00 -1.984321e+01 3.000000e+00
      vertex   2.508217e+00 -1.984321e+01 0.000000e+00
      vertex   2.532779e+00 -1.968813e+01 3.000000e+00
    endloop
  endfacet
  facet normal 9.876883e-01 -1.564345e-01 0.000000e+00
    outer loop
      vertex   2.532779e+00 -1.968813e+01 3.000000e+00
      vertex   2.508217e+00 -1.984321e+01 0.000000e+00
      vertex   2.532779e+00 -1.968813e+01 0.000000e+00
    endloop
  endfacet
  facet normal 9.659258e-01 -2.588190e-01 0.000000e+00
    outer loop
      vertex   2.532779e+00 -1.968813e+01 3.000000e+00
      vertex   2.532779e+00 -1.968813e+01 0.000000e+00
      vertex   2.573415e+00 -1.953647e+01 3.000000e+00
    endloop
  endfacet
  facet normal 9.659258e-01 -2.588190e-01 0.000000e+00
    outer loop
      vertex   2.573415e+00 -1.953647e+01 3.000000e+00
      vertex   2.532779e+00 -1.968813e+01 0.000000e+00
      vertex   2.573415e+00 -1.953647e+01 0.000000e+00
    endloop
  endfacet
  facet normal 9.335804e-01 -3.583679e-01 0.000000e+00
    outer loop
      vertex   2.573415e+00 -1.953647e+01 3.000000e+00
      vertex   2.573415e+00 -1.953647e+01 0.000000e+00
      vertex   2.629682e+00 -1.938990e+01 3.000000e+00
    endloop
  endfacet
  facet normal 9.335804e-01 -3.583679e-01 0.000000e+00
    outer loop
      vertex   2.629682e+00 -1.938990e+01 3.000000e+00
      vertex   2.573415e+00 -1.953647e+01 0.000000e+00
      vertex   2.629682e+00 -1.938990e+01 0.000000e+00
    endloop
  endfacet
  facet normal 8.910065e-01 -4.539905e-01 0.000000e+00
    outer loop
      vertex   2.629682e+00 -1.938990e+01 3.000000e+00
      vertex   2.629682e+00 -1.938990e+01 0.000000e+00
      vertex   2.700962e+00 -1.925000e+01 3.000000e+00
    endloop
  endfacet
  facet normal 8.910065e-01 -4.539905e-01 0.000000e+00
    outer loop
      vertex   2.700962e+00 -1.925000e+01 3.000000e+00
      vertex   2.629682e+00 -1.938990e+01 0.000000e+00
      vertex   2.700962e+00 -1.925000e+01 0.000000e+00
    endloop
  endfacet
  facet normal 8.386706e-01 -5.446390e-01 0.000000e+00
    outer loop
      vertex   2.700962e+00 -1.925000e+01 3.000000e+00
      vertex   2.700962e+00 -1.925000e+01 0.000000e+00
      vertex   2.786475e+00 -1.911832e+01 3.000000e+00
    endloop
  endfacet
  facet normal 8.386706e-01 -5.446390e-01 0.000000e+00
    outer loop
      vertex   2.786475e+00 -1.911832e+01 3.000000e+00
      vertex   2.700962e+00 -1.925000e+01 0.000000e+00
      vertex   2.786475e+00 -1.911832e+01 0.000000e+00
    endloop
  endfacet
  facet normal 7.771460e-01 -6.293204e-01 0.000000e+00
    outer loop
      vertex   2.786475e+00 -1.911832e+01 3.000000e+00
      vertex   2.786475e+00 -1.911832e+01 0.000000e+00
      vertex   2.885283e+00 -1.899630e+01 3.000000e+00
    endloop
  endfacet
  facet normal 7.771460e-01 -6.293204e-01 0.000000e+00
    outer loop
      vertex   2.885283e+00 -1.899630e+01 3.000000e+00
      vertex   2.786475e+00 -1.911832e+01 0.000000e+00
      vertex   2.885283e+00 -1.899630e+01 0.000000e+00
    endloop
  endfacet
  facet normal 7.071068e-01 -7.071068e-01 0.000000e+00
    outer loop
      vertex   2.885283e+00 -1.899630e+01 3.000000e+00
      vertex   2.885283e+00 -1.899630e+01 0.000000e+00
      vertex   2.996304e+00 -1.888528e+01 3.000000e+00
    endloop
  endfacet
  facet normal 7.071068e-01 -7.071068e-01 0.000000e+00
    outer loop
      vertex   2.996304e+00 -1.888528e+01 3.000000e+00
      vertex   2.885283e+00 -1.899630e+01 0.000000e+00
      vertex   2.996304e+00 -1.888528e+01 0.000000e+00
    endloop
  endfacet
  facet normal 6.293204e-01 -7.771460e-01 0.000000e+00
    outer loop
      vertex   2.996304e+00 -1.888528e+01 3.000000e+00
      vertex   2.996304e+00 -1.888528e+01 0.000000e+00
      vertex   3.118322e+00 -1.878647e+01 3.000000e+00
    endloop
  endfacet
  facet normal 6.293204e-01 -7.771460e-01 0.000000e+00
    outer loop
      vertex   3.118322e+00 -1.878647e+01 3.000000e+00
      vertex   2.996304e+00 -1.888528e+01 0.000000e+00
      vertex   3.118322e+00 -1.878647e+01 0.000000e+00
    endloop
  endfacet
  facet normal 5.446390e-01 -8.386706e-01 0.000000e+00
    outer loop
      vertex   3.118322e+00 -1.878647e+01 3.000000e+00
      vertex   3.118322e+00 -1.878647e+01 0.000000e+00
      vertex   3.250000e+00 -1.870096e+01 3.000000e+00
    endloop
  endfacet
  facet normal 5.446390e-01 -8.386706e-01 0.000000e+00
    outer loop
      vertex   3.250000e+00 -1.870096e+01 3.000000e+00
      vertex   3.118322e+00 -1.878647e+01 0.000000e+00
      vertex   3.250000e+00 -1.870096e+01 0.000000e+00
    endloop
  endfacet
  facet normal 4.539905e-01 -8.910065e-01 0.000000e+00
    outer loop
      vertex   3.250000e+00 -1.870096e+01 3.000000e+00
      vertex   3.250000e+00 -1.870096e+01 0.000000e+00
      vertex   3.389895e+00 -1.862968e+01 3.000000e+00
    endloop
  endfacet
  facet normal 4.539905e-01 -8.910065e-01 0.000000e+00
    outer loop
      vertex   3.389895e+00 -1.862968e+01 3.000000e+00
      vertex   3.250000e+00 -1.870096e+01 0.000000e+00
      vertex   3.389895e+00 -1.862968e+01 0.000000e+00
    endloop
  endfacet
  facet normal 3.583679e-01 -9.335804e-01 0.000000e+00
    outer loop
      vertex   3.389895e+00 -1.862968e+01 3.000000e+00
      vertex   3.389895e+00 -1.862968e+01 0.000000e+00
      vertex   3.536475e+00 -1.857342e+01 3.000000e+00
    endloop
  endfacet
  facet normal 3.583679e-01 -9.335804e-01 0.000000e+00
    outer loop
      vertex   3.536475e+00 -1.857342e+01 3.000000e+00
      vertex   3.389895e+00 -1.862968e+01 0.000000e+00
      vertex   3.536475e+00 -1.857342e+01 0.000000e+00
    endloop
  endfacet
  facet normal 2.588190e-01 -9.659258e-01 0.000000e+00
    outer loop
      vertex   3.536475e+00 -1.857342e+01 3.000000e+00
      vertex   3.536475e+00 -1.857342e+01 0.000000e+00
      vertex   3.688132e+00 -1.853278e+01 3.000000e+00
    endloop
  endfacet
  facet normal 2.588190e-01 -9.659258e-01 0.000000e+00
    outer loop
      vertex   3.688132e+00 -1.853278e+01 3.000000e+00
      vertex   3.536475e+00 -1.857342e+01 0.000000e+00
      vertex   3.688132e+00 -1.853278e+01 0.000000e+00
    endloop
  endfacet
  facet normal 1.564345e-01 -9.876883e-01 0.000000e+00
    outer loop
      vertex   3.688132e+00 -1.853278e+01 3.000000e+00
      vertex   3.688132e+00 -1.853278e+01 0.000000e+00
      vertex   3.843207e+00 -1.850822e+01 3.000000e+00
    endloop
  endfacet
  facet normal 1.564345e-01 -9.876883e-01 0.000000e+00
    outer loop
      vertex   3.843207e+00 -1.850822e+01 3.000000e+00
      vertex   3.688132e+00 -1.853278e+01 0.000000e+00
      vertex   3.843207e+00 -1.850822e+01 0.000000e+00
    endloop
  endfacet
  facet normal 5.233596e-02 -9.986295e-01 0.000000e+00
    outer loop
      vertex   3.843207e+00 -1.850822e+01 3.000000e+00
      vertex   3.843207e+00 -1.850822e+01 0.000000e+00
      vertex   4.000000e+00 -1.850000e+01 3.000000e+00
    endloop
  endfacet
  facet normal 5.233596e-02 -9.986295e-01 0.000000e+00
    outer loop
      vertex   4.000000e+00 -1.850000e+01 3.000000e+00
      vertex   3.843207e+00 -1.850822e+01 0.000000e+00
      vertex   4.000000e+00 -1.850000e+01 0.000000e+00
    endloop
  endfacet
  facet normal -5.233596e-02 -9.986295e-01 -0.000000e+00
    outer loop
      vertex   4.000000e+00 -1.850000e+01 3.000000e+00
      vertex   4.000000e+00 -1.850000e+01 0.000000e+00
      vertex   4.156793e+00 -1.850822e+01 3.000000e+00
    endloop
  endfacet
  facet normal -5.233596e-02 -9.986295e-01 -0.000000e+00
    outer loop
      vertex   4.156793e+00 -1.850822e+01 3.000000e+00
      vertex   4.000000e+00 -1.850000e+01 0.000000e+00
      vertex   4.156793e+00 -1.850822e+01 0.000000e+00
    endloop
  endfacet
  facet normal -1.564345e-01 -9.876883e-01 -0.000000e+00
    outer loop
      vertex   4.156793e+00 -1.850822e+01 3.000000e+00
      vertex   4.156793e+00 -1.850822e+01 0.000000e+00
      vertex   4.311868e+00 -1.853278e+01 3.000000e+00
    endloop
  endfacet
  facet normal -1.564345e-01 -9.876883e-01 -0.000000e+00
    outer loop
      vertex   4.311868e+00 -1.853278e+01 3.000000e+00
      vertex   4.156793e+00 -1.850822e+01 0.000000e+00
      vertex   4.311868e+00 -1.853278e+01 0.000000e+00
    endloop
  endfacet
  facet normal -2.588190e-01 -9.659258e-01 -0.000000e+00
    outer loop
      vertex   4.311868e+00 -1.853278e+01 3.000000e+00
      vertex   4.311868e+00 -1.853278e+01 0.000000e+00
      vertex   4.463525e+00 -1.857342e+01 3.000000e+00
    endloop
  endfacet
  facet normal -2.588190e-01 -9.659258e-01 -0.000000e+00
    outer loop
      vertex   4.463525e+00 -1.857342e+01 3.000000e+00
      vertex   4.311868e+00 -1.853278e+01 0.000000e+00
      vertex   4.463525e+00 -1.857342e+01 0.000000e+00
    endloop
  endfacet
  facet normal -3.583679e-01 -9.335804e-01 -0.000000e+00
    outer loop
      vertex   4.463525e+00 -1.857342e+01 3.000000e+00
      vertex   4.463525e+00 -1.857342e+01 0.000000e+00
      vertex   4.610105e+00 -1.862968e+01 3.000000e+00
    endloop
  endfacet
  facet normal -3.583679e-01 -9.335804e-01 -0.000000e+00
    outer loop
      vertex   4.610105e+00 -1.862968e+01 3.000000e+00
      vertex   4.463525e+00 -1.857342e+01 0.000000e+00
      vertex   4.610105e+00 -1.862968e+01 0.000000e+00
    endloop
  endfacet
  facet normal -4.539905e-01 -8.910065e-01 -0.000000e+00
    outer loop
      vertex   4.610105e+00 -1.862968e+01 3.000000e+00
      vertex   4.610105e+00 -1.862968e+01 0.000000e+00
      vertex   4.750000e+00 -1.870096e+01 3.000000e+00
    endloop
  endfacet
  facet normal -4.539905e-01 -8.910065e-01 -0.000000e+00
    outer loop
      vertex   4.750000e+00 -1.870096e+01 3.000000e+00
      vertex   4.610105e+00 -1.862968e+01 0.000000e+00
      vertex   4.750000e+00 -1.870096e+01 0.000000e+00
    endloop
  endfacet
  facet normal -5.446390e-01 -8.386706e-01 -0.000000e+00
    outer loop
      vertex   4.750000e+00 -1.870096e+01 3.000000e+00
      vertex   4.750000e+00 -1.870096e+01 0.000000e+00
      vertex   4.881678e+00 -1.878647e+01 3.000000e+00
    endloop
  endfacet
  facet normal -5.446390e-01 -8.386706e-01 -0.000000e+00
    outer loop
      vertex   4.881678e+00 -1.878647e+01 3.000000e+00
      vertex   4.750000e+00 -1.870096e+01 0.000000e+00
      vertex   4.881678e+00 -1.878647e+01 0.000000e+00
    endloop
  endfacet
  facet normal -6.293204e-01 -7.771460e-01 -0.000000e+00
    outer loop
      vertex   4.881678e+00 -1.878647e+01 3.000000e+00
      vertex   4.881678e+00 -1.878647e+01 0.000000e+00
      vertex   5.003696e+00 -1.888528e+01 3.000000e+00
    endloop
  endfacet
  facet normal -6.293204e-01 -7.771460e-01 -0.000000e+00
    outer loop
      vertex   5.003696e+00 -1.888528e+01 3.000000e+00
      vertex   4.881678e+00 -1.878647e+01 0.000000e+00
      vertex   5.003696e+00 -1.888528e+01 0.000000e+00
    endloop
  endfacet
  facet normal -7.071068e-01 -7.071068e-01 -0.000000e+00
    outer loop
      vertex   5.003696e+00 -1.888528e+01 3.000000e+00
      vertex   5.003696e+00 -1.888528e+01 0.000000e+00
      vertex   5.114717e+00 -1.899630e+01 3.000000e+00
    endloop
  endfacet
  facet normal -7.071068e-01 -7.071068e-01 -0.000000e+00
    outer loop
      vertex   5.114717e+00 -1.899630e+01 3.000000e+00
      vertex   5.003696e+00 -1.888528e+01 0.000000e+00
      vertex   5.114717e+00 -1.899630e+01 0.000000e+00
    endloop
  endfacet
  facet normal -7.771460e-01 -6.293204e-01 -0.000000e+00
    outer loop
      vertex   5.114717e+00 -1.899630e+01 3.000000e+00
      vertex   5.114717e+00 -1.899630e+01 0.000000e+00
      vertex   5.213525e+00 -1.911832e+01 3.000000e+00
    endloop
  endfacet
  facet normal -7.771460e-01 -6.293204e-01 -0.000000e+00
    outer loop
      vertex   5.213525e+00 -1.911832e+01 3.000000e+00
      vertex   5.114717e+00 -1.899630e+01 0.000000e+00
      vertex   5.213525e+00 -1.911832e+01 0.000000e+00
    endloop
  endfacet
  facet normal -8.386706e-01 -5.446390e-01 -0.000000e+00
    outer loop
      vertex   5.213525e+00 -1.911832e+01 3.000000e+00
      vertex   5.213525e+00 -1.911832e+01 0.000000e+00
      vertex   5.299038e+00 -1.925000e+01 3.000000e+00
    endloop
  endfacet
  facet normal -8.386706e-01 -5.446390e-01 -0.000000e+00
    outer loop
      vertex   5.299038e+00 -1.925000e+01 3.000000e+00
      vertex   5.213525e+00 -1.911832e+01 0.000000e+00
      vertex   5.299038e+00 -1.925000e+01 0.000000e+00
    endloop
  endfacet
  facet normal -8.910065e-01 -4.539905e-01 -0.000000e+00
    outer loop
      vertex   5.299038e+00 -1.925000e+01 3.000000e+00
      vertex   5.299038e+00 -1.925000e+01 0.000000e+00
      vertex   5.370318e+00 -1.938990e+01 3.000000e+00
    endloop
  endfacet
  facet normal -8.910065e-01 -4.539905e-01 -0.000000e+00
    outer loop
      vertex   5.370318e+00 -1.938990e+01 3.000000e+00
      vertex   5.299038e+00 -1.925000e+01 0.000000e+00
      vertex   5.370318e+00 -1.938990e+01 0.000000e+00
    endloop
  endfacet
  facet normal -9.335804e-01 -3.583679e-01 -0.000000e+00
    outer loop
      vertex   5.370318e+00 -1.938990e+01 3.000000e+00
      vertex   5.370318e+00 -1.938990e+01 0.000000e+00
      vertex   5.426585e+00 -1.953647e+01 3.000000e+00
    endloop
  endfacet
  facet normal -9.335804e-01 -3.583679e-01 -0.000000e+00
    outer loop
      vertex   5.426585e+00 -1.953647e+01 3.000000e+00
      vertex   5.370318e+00 -1.938990e+01 0.000000e+00
      vertex   5.426585e+00 -1.953647e+01 0.000000e+00
    endloop
  endfacet
  facet normal -9.659258e-01 -2.588190e-01 -0.000000e+00
    outer loop
      vertex   5.426585e+00 -1.953647e+01 3.000000e+00
      vertex   5.426585e+00 -1.953647e+01 0.000000e+00
      vertex   5.467221e+00 -1.968813e+01 3.000000e+00
    endloop
  endfacet
  facet normal -9.659258e-01 -2.588190e-01 -0.000000e+00
    outer loop
      vertex   5.467221e+00 -1.968813e+01 3.000000e+00
      vertex   5.426585e+00 -1.953647e+01 0.000000e+00
      vertex   5.467221e+00 -1.968813e+01 0.000000e+00
    endloop
  endfacet
  facet normal -9.876883e-01 -1.564345e-01 -0.000000e+00
    outer loop
      vertex   5.467221e+00 -1.968813e+01 3.000000e+00
      vertex   5.467221e+00 -1.968813e+01 0.000000e+00
      vertex   5.491783e+00 -1.984321e+01 3.000000e+00
    endloop
  endfacet
  facet normal -9.876883e-01 -1.564345e-01 -0.000000e+00
    outer loop
      vertex   5.491783e+00 -1.984321e+01 3.000000e+00
      vertex   5.467221e+00 -1.968813e+01 0.000000e+00
      vertex   5.491783e+00 -1.984321e+01 0.000000e+00
    endloop
  endfacet
  facet normal -9.986295e-01 -5.233596e-02 -0.000000e+00
    outer loop
      vertex   5.491783e+00 -1.984321e+01 3.000000e+00
      vertex   5.491783e+00 -1.984321e+01 0.000000e+00
      vertex   5.500000e+00 -2.000000e+01 3.000000e+00
    endloop
  endfacet
  facet normal -9.986295e-01 -5.233596e-02 -0.000000e+00
    outer loop
      vertex   5.500000e+00 -2.000000e+01 3.000000e+00
      vertex   5.491783e+00 -1.984321e+01 0.000000e+00
      vertex   5.500000e+00 -2.000000e+01 0.000000e+00
    endloop
  endfacet
  facet normal -9.986295e-01 5.233596e-02 0.000000e+00
    outer loop
      vertex   5.500000e+00 -2.000000e+01 3.000000e+00
      vertex   5.500000e+00 -2.000000e+01 0.000000e+00
      vertex   5.491783e+00 -2.015679e+01 3.000000e+00
    endloop
  endfacet
  facet normal -9.986295e-01 5.233596e-02 0.000000e+00
    outer loop
      vertex   5.491783e+00 -2.015679e+01 3.000000e+00
      vertex   5.500000e+00 -2.000000e+01 0.000000e+00
      vertex   5.491783e+00 -2.015679e+01 0.000000e+00
    endloop
  endfacet
  facet normal -9.876883e-01 1.564345e-01 0.000000e+00
    outer loop
      vertex   5.491783e+00 -2.015679e+01 3.000000e+00
      vertex   5.491783e+00 -2.015679e+01 0.000000e+00
      vertex   5.467221e+00 -2.031187e+01 3.000000e+00
    endloop
  endfacet
  facet normal -9.876883e-01 1.564345e-01 0.000000e+00
    outer loop
      vertex   5.467221e+00 -2.031187e+01 3.000000e+00
      vertex   5.491783e+00 -2.015679e+01 0.000000e+00
      vertex   5.467221e+00 -2.031187e+01 0.000000e+00
    endloop
  endfacet
  facet normal -9.659258e-01 2.588190e-01 0.000000e+00
    outer loop
      vertex   5.467221e+00 -2.031187e+01 3.000000e+00
      vertex   5.467221e+00 -2.031187e+01 0.000000e+00
      vertex   5.426585e+00 -2.046353e+01 3.000000e+00
    endloop
  endfacet
  facet normal -9.659258e-01 2.588190e-01 0.000000e+00
    outer loop
      vertex   5.426585e+00 -2.046353e+01 3.000000e+00
      vertex   5.467221e+00 -2.031187e+01 0.000000e+00
      vertex   5.426585e+00 -2.046353e+01 0.000000e+00
    endloop
  endfacet
  facet normal -9.335804e-01 3.583679e-01 0.000000e+00
    outer loop
      vertex   5.426585e+00 -2.046353e+01 3.000000e+00
      vertex   5.426585e+00 -2.046353e+01 0.000000e+00
      vertex   5.370318e+00 -2.061010e+01 3.000000e+00
    endloop
  endfacet
  facet normal -9.335804e-01 3.583679e-01 0.000000e+00
    outer loop
      vertex   5.370318e+00 -2.061010e+01 3.000000e+00
      vertex   5.426585e+00 -2.046353e+01 0.000000e+00
      vertex   5.370318e+00 -2.061010e+01 0.000000e+00
    endloop
  endfacet
  facet normal -8.910065e-01 4.539905e-01 0.000000e+00
    outer loop
      vertex   5.370318e+00 -2.061010e+01 3.000000e+00
      vertex   5.370318e+00 -2.061010e+01 0.000000e+00
      vertex   5.299038e+00 -2.075000e+01 3.000000e+00
    endloop
  endfacet
  facet normal -8.910065e-01 4.539905e-01 0.000000e+00
    outer loop
      vertex   5.299038e+00 -2.075000e+01 3.000000e+00
      vertex   5.370318e+00 -2.061010e+01 0.000000e+00
      vertex   5.299038e+00 -2.075000e+01 0.000000e+00
    endloop
  endfacet
  facet normal -8.386706e-01 5.446390e-01 0.000000e+00
    outer loop
      vertex   5.299038e+00 -2.075000e+01 3.000000e+00
      vertex   5.299038e+00 -2.075000e+01 0.000000e+00
      vertex   5.213525e+00 -2.088168e+01 3.000000e+00
    endloop
  endfacet
  facet normal -8.386706e-01 5.446390e-01 0.000000e+00
    outer loop
      vertex   5.213525e+00 -2.088168e+01 3.000000e+00
      vertex   5.299038e+00 -2.075000e+01 0.000000e+00
      vertex   5.213525e+00 -2.088168e+01 0.000000e+00
    endloop
  endfacet
  facet normal -7.771460e-01 6.293204e-01 0.000000e+00
    outer loop
      vertex   5.213525e+00 -2.088168e+01 3.000000e+00
      vertex   5.213525e+00 -2.088168e+01 0.000000e+00
      vertex   5.114717e+00 -2.100370e+01 3.000000e+00
    endloop
  endfacet
  facet normal -7.771460e-01 6.293204e-01 0.000000e+00
    outer loop
      vertex   5.114717e+00 -2.100370e+01 3.000000e+00
      vertex   5.213525e+00 -2.088168e+01 0.000000e+00
      vertex   5.114717e+00 -2.100370e+01 0.000000e+00
    endloop
  endfacet
  facet normal -7.071068e-01 7.071068e-01 0.000000e+00
    outer loop
      vertex   5.114717e+00 -2.100370e+01 3.000000e+00
      vertex   5.114717e+00 -2.100370e+01 0.000000e+00
      vertex   5.003696e+00 -2.111472e+01 3.000000e+00
    endloop
  endfacet
  facet normal -7.071068e-01 7.071068e-01 0.000000e+00
    outer loop
      vertex   5.003696e+00 -2.111472e+01 3.000000e+00
      vertex   5.114717e+00 -2.100370e+01 0.000000e+00
      vertex   5.003696e+00 -2.111472e+01 0.000000e+00
    endloop
  endfacet
  facet normal -6.293204e-01 7.771460e-01 0.000000e+00
    outer loop
      vertex   5.003696e+00 -2.111472e+01 3.000000e+00
      vertex   5.003696e+00 -2.111472e+01 0.000000e+00
      vertex   4.881678e+00 -2.121353e+01 3.000000e+00
    endloop
  endfacet
  facet normal -6.293204e-01 7.771460e-01 0.000000e+00
    outer loop
      vertex   4.881678e+00 -2.121353e+01 3.000000e+00
      vertex   5.003696e+00 -2.111472e+01 0.000000e+00
      vertex   4.881678e+00 -2.121353e+01 0.000000e+00
    endloop
  endfacet
  facet normal -5.446390e-01 8.386706e-01 0.000000e+00
    outer loop
      vertex   4.881678e+00 -2.121353e+01 3.000000e+00
      vertex   4.881678e+00 -2.121353e+01 0.000000e+00
      vertex   4.750000e+00 -2.129904e+01 3.000000e+00
    endloop
  endfacet
  facet normal -5.446390e-01 8.386706e-01 0.000000e+00
    outer loop
      vertex   4.750000e+00 -2.129904e+01 3.000000e+00
      vertex   4.881678e+00 -2.121353e+01 0.000000e+00
      vertex   4.750000e+00 -2.129904e+01 0.000000e+00
    endloop
  endfacet
  facet normal -4.539905e-01 8.910065e-01 0.000000e+00
    outer loop
      vertex   4.750000e+00 -2.129904e+01 3.000000e+00
      vertex   4.750000e+00 -2.129904e+01 0.000000e+00
      vertex   4.610105e+00 -2.137032e+01 3.000000e+00
    endloop
  endfacet
  facet normal -4.539905e-01 8.910065e-01 0.000000e+00
    outer loop
      vertex   4.610105e+00 -2.137032e+01 3.000000e+00
      vertex   4.750000e+00 -2.129904e+01 0.000000e+00
      vertex   4.610105e+00 -2.137032e+01 0.000000e+00
    endloop
  endfacet
  facet normal -3.583679e-01 9.335804e-01 0.000000e+00
    outer loop
      vertex   4.610105e+00 -2.137032e+01 3.000000e+00
      vertex   4.610105e+00 -2.137032e+01 0.000000e+00
      vertex   4.463525e+00 -2.142658e+01 3.000000e+00
    endloop
  endfacet
  facet normal -3.583679e-01 9.335804e-01 0.000000e+00
    outer loop
      vertex   4.463525e+00 -2.142658e+01 3.000000e+00
      vertex   4.610105e+00 -2.137032e+01 0.000000e+00
      vertex   4.463525e+00 -2.142658e+01 0.000000e+00
    endloop
  endfacet
  facet normal -2.588190e-01 9.659258e-01 0.000000e+00
    outer loop
      vertex   4.463525e+00 -2.142658e+01 3.000000e+00
      vertex   4.463525e+00 -2.142658e+01 0.000000e+00
      vertex   4.311868e+00 -2.146722e+01 3.000000e+00
    endloop
  endfacet
  facet normal -2.588190e-01 9.659258e-01 0.000000e+00
    outer loop
      vertex   4.311868e+00 -2.146722e+01 3.000000e+00
      vertex   4.463525e+00 -2.142658e+01 0.000000e+00
      vertex   4.311868e+00 -2.146722e+01 0.000000e+00
    endloop
  endfacet
  facet normal -1.564345e-01 9.876883e-01 0.000000e+00
    outer loop
      vertex   4.311868e+00 -2.146722e+01 3.000000e+00
      vertex   4.311868e+00 -2.146722e+01 0.000000e+00
      vertex   4.156793e+00 -2.149178e+01 3.000000e+00
    endloop
  endfacet
  facet normal -1.564345e-01 9.876883e-01 0.000000e+00
    outer loop
      vertex   4.156793e+00 -2.149178e+01 3.000000e+00
      vertex   4.311868e+00 -2.146722e+01 0.000000e+00
      vertex   4.156793e+00 -2.149178e+01 0.000000e+00
    endloop
  endfacet
  facet normal -5.233596e-02 9.986295e-01 0.000000e+00
    outer loop
      vertex   4.156793e+00 -2.149178e+01 3.000000e+00
      vertex   4.156793e+00 -2.149178e+01 0.000000e+00
      vertex   4.000000e+00 -2.150000e+01 3.000000e+00
    endloop
  endfacet
  facet normal -5.233596e-02 9.986295e-01 0.000000e+00
    outer loop
      vertex   4.000000e+00 -2.150000e+01 3.000000e+00
      vertex   4.156793e+00 -2.149178e+01 0.000000e+00
      vertex   4.000000e+00 -2.150000e+01 0.000000e+00
    endloop
  endfacet
  facet normal 5.233596e-02 9.986295e-01 0.000000e+00
    outer loop
      vertex   4.000000e+00 -2.150000e+01 3.000000e+00
      vertex   4.000000e+00 -2.150000e+01 0.000000e+00
      vertex   3.843207e+00 -2.149178e+01 3.000000e+00
    endloop
  endfacet
  facet normal 5.233596e-02 9.986295e-01 0.000000e+00
    outer loop
      vertex   3.843207e+00 -2.149178e+01 3.000000e+00
      vertex   4.000000e+00 -2.150000e+01 0.000000e+00
      vertex   3.843207e+00 -2.149178e+01 0.000000e+00
    endloop
  endfacet
  facet normal 1.564345e-01 9.876883e-01 0.000000e+00
    outer loop
      vertex   3.843207e+00 -2.149178e+01 3.000000e+00
      vertex   3.843207e+00 -2.149178e+01 0.000000e+00
      vertex   3.688132e+00 -2.146722e+01 3.000000e+00
    endloop
  endfacet
  facet normal 1.564345e-01 9.876883e-01 0.000000e+00
    outer loop
      vertex   3.688132e+00 -2.146722e+01 3.000000e+00
      vertex   3.843207e+00 -2.149178e+01 0.000000e+00
      vertex   3.688132e+00 -2.146722e+01 0.000000e+00
    endloop
  endfacet
  facet normal 2.588190e-01 9.659258e-01 0.000000e+00
    outer loop
      vertex   3.688132e+00 -2.146722e+01 3.000000e+00
      vertex   3.688132e+00 -2.146722e+01 0.000000e+00
      vertex   3.536475e+00 -2.142658e+01 3.000000e+00
    endloop
  endfacet
  facet normal 2.588190e-01 9.659258e-01 0.000000e+00
    outer loop
      vertex   3.536475e+00 -2.142658e+01 3.000000e+00
      vertex   3.688132e+00 -2.146722e+01 0.000000e+00
      vertex   3.536475e+00 -2.142658e+01 0.000000e+00
    endloop
  endfacet
  facet normal 3.583679e-01 9.335804e-01 0.000000e+00
    outer loop
      vertex   3.536475e+00 -2.142658e+01 3.000000e+00
      vertex   3.536475e+00 -2.142658e+01 0.000000e+00
      vertex   3.389895e+00 -2.137032e+01 3.000000e+00
    endloop
  endfacet
  facet normal 3.583679e-01 9.335804e-01 0.000000e+00
    outer loop
      vertex   3.389895e+00 -2.137032e+01 3.000000e+00
      vertex   3.536475e+00 -2.142658e+01 0.000000e+00
      vertex   3.389895e+00 -2.137032e+01 0.000000e+00
    endloop
  endfacet
  facet normal 4.539905e-01 8.910065e-01 0.000000e+00
    outer loop
      vertex   3.389895e+00 -2.137032e+01 3.000000e+00
      vertex   3.389895e+00 -2.137032e+01 0.000000e+00
      vertex   3.250000e+00 -2.129904e+01 3.000000e+00
    endloop
  endfacet
  facet normal 4.539905e-01 8.910065e-01 0.000000e+00
    outer loop
      vertex   3.250000e+00 -2.129904e+01 3.000000e+00
      vertex   3.389895e+00 -2.137032e+01 0.000000e+00
      vertex   3.250000e+00 -2.129904e+01 0.000000e+00
    endloop
  endfacet
  facet normal 5.446390e-01 8.386706e-01 0.000000e+00
    outer loop
      vertex   3.250000e+00 -2.129904e+01 3.000000e+00
      vertex   3.250000e+00 -2.129904e+01 0.000000e+00
      vertex   3.118322e+00 -2.121353e+01 3.000000e+00
    endloop
  endfacet
  facet normal 5.446390e-01 8.386706e-01 0.000000e+00
    outer loop
      vertex   3.118322e+00 -2.121353e+01 3.000000e+00
      vertex   3.250000e+00 -2.129904e+01 0.000000e+00
      vertex   3.118322e+00 -2.121353e+01 0.000000e+00
    endloop
  endfacet
  facet normal 6.293204e-01 7.771460e-01 0.000000e+00
    outer loop
      vertex   3.118322e+00 -2.121353e+01 3.000000e+00
      vertex   3.118322e+00 -2.121353e+01 0.000000e+00
      vertex   2.996304e+00 -2.111472e+01 3.000000e+00
    endloop
  endfacet
  facet normal 6.293204e-01 7.771460e-01 0.000000e+00
    outer loop
      vertex   2.996304e+00 -2.111472e+01 3.000000e+00
      vertex   3.118322e+00 -2.121353e+01 0.000000e+00
      vertex   2.996304e+00 -2.111472e+01 0.000000e+00
    endloop
  endfacet
  facet normal 7.071068e-01 7.071068e-01 0.000000e+00
    outer loop
      vertex   2.996304e+00 -2.111472e+01 3.000000e+00
      vertex   2.996304e+00 -2.111472e+01 0.000000e+00
      vertex   2.885283e+00 -2.100370e+01 3.000000e+00
    endloop
  endfacet
  facet normal 7.071068e-01 7.071068e-01 0.000000e+00
    outer loop
      vertex   2.885283e+00 -2.100370e+01 3.000000e+00
      vertex   2.996304e+00 -2.111472e+01 0.000000e+00
      vertex   2.885283e+00 -2.100370e+01 0.000000e+00
    endloop
  endfacet
  facet normal 7.771460e-01 6.293204e-01 0.000000e+00
    outer loop
      vertex   2.885283e+00 -2.100370e+01 3.000000e+00
      vertex   2.885283e+00 -2.100370e+01 0.000000e+00
      vertex   2.786475e+00 -2.088168e+01 3.000000e+00
    endloop
  endfacet
  facet normal 7.771460e-01 6.293204e-01 0.000000e+00
    outer loop
      vertex   2.786475e+00 -2.088168e+01 3.000000e+00
      vertex   2.885283e+00 -2.100370e+01 0.000000e+00
      vertex   2.786475e+00 -2.088168e+01 0.000000e+00
    endloop
  endfacet
  facet normal 8.386706e-01 5.446390e-01 0.000000e+00
    outer loop
      vertex   2.786475e+00 -2.088168e+01 3.000000e+00
      vertex   2.786475e+00 -2.088168e+01 0.000000e+00
      vertex   2.700962e+00 -2.075000e+01 3.000000e+00
    endloop
  endfacet
  facet normal 8.386706e-01 5.446390e-01 0.000000e+00
    outer loop
      vertex   2.700962e+00 -2.075000e+01 3.000000e+00
      vertex   2.786475e+00 -2.088168e+01 0.000000e+00
      vertex   2.700962e+00 -2.075000e+01 0.000000e+00
    endloop
  endfacet
  facet normal 8.910065e-01 4.539905e-01 0.000000e+00
    outer loop
      vertex   2.700962e+00 -2.075000e+01 3.000000e+00
      vertex   2.700962e+00 -2.075000e+01 0.000000e+00
      vertex   2.629682e+00 -2.061010e+01 3.000000e+00
    endloop
  endfacet
  facet normal 8.910065e-01 4.539905e-01 0.000000e+00
    outer loop
      vertex   2.629682e+00 -2.061010e+01 3.000000e+00
      vertex   2.700962e+00 -2.075000e+01 0.000000e+00
      vertex   2.629682e+00 -2.061010e+01 0.000000e+00
    endloop
  endfacet
  facet normal 9.335804e-01 3.583679e-01 0.000000e+00
    outer loop
      vertex   2.629682e+00 -2.061010e+01 3.000000e+00
      vertex   2.629682e+00 -2.061010e+01 0.000000e+00
      vertex   2.573415e+00 -2.046353e+01 3.000000e+00
    endloop
  endfacet
  facet normal 9.335804e-01 3.583679e-01 0.000000e+00
    outer loop
      vertex   2.573415e+00 -2.046353e+01 3.000000e+00
      vertex   2.629682e+00 -2.061010e+01 0.000000e+00
      vertex   2.573415e+00 -2.046353e+01 0.000000e+00
    endloop
  endfacet
  facet normal 9.659258e-01 2.588190e-01 0.000000e+00
    outer loop
      vertex   2.573415e+00 -2.046353e+01 3.000000e+00
      vertex   2.573415e+00 -2.046353e+01 0.000000e+00
      vertex   2.532779e+00 -2.031187e+01 3.000000e+00
    endloop
  endfacet
  facet normal 9.659258e-01 2.588190e-01 0.000000e+00
    outer loop
      vertex   2.532779e+00 -2.031187e+01 3.000000e+00
      vertex   2.573415e+00 -2.046353e+01 0.000000e+00
      vertex   2.532779e+00 -2.031187e+01 0.000000e+00
    endloop
  endfacet
  facet normal 9.876883e-01 1.564345e-01 0.000000e+00
    outer loop
      vertex   2.532779e+00 -2.031187e+01 3.000000e+00
      vertex   2.532779e+00 -2.031187e+01 0.000000e+00
      vertex   2.508217e+00 -2.015679e+01 3.000000e+00
    endloop
  endfacet
  facet normal 9.876883e-01 1.564345e-01 0.000000e+00
    outer loop
      vertex   2.508217e+00 -2.015679e+01 3.000000e+00
      vertex   2.532779e+00 -2.031187e+01 0.000000e+00
      vertex   2.508217e+00 -2.015679e+01 0.000000e+00
    endloop
  endfacet
  facet normal 1.000000e+00 0.000000e+00 0.000000e+00
    outer loop
      vertex   1.050000e+01 -4.000000e+01 0.000000e+00
      vertex   1.050000e+01 0.000000e+00 0.000000e+00
      vertex   1.050000e+01 -4.000000e+01 3.000000e+00
    endloop
  endfacet
  facet normal 1.000000e+00 -0.000000e+00 0.000000e+00
    outer loop
      vertex   1.050000e+01 -4.000000e+01 3.000000e+00
      vertex   1.050000e+01 0.000000e+00 0.000000e+00
      vertex   1.050000e+01 0.000000e+00 3.000000e+00
    endloop
  endfacet
  facet normal 0.000000e+00 -1.000000e+00 0.000000e+00
    outer loop
      vertex   0.000000e+00 -4.000000e+01 0.000000e+00
      vertex   1.050000e+01 -4.000000e+01 0.000000e+00
      vertex   0.000000e+00 -4.000000e+01 3.000000e+00
    endloop
  endfacet
  facet normal 0.000000e+00 -1.000000e+00 0.000000e+00
    outer loop
      vertex   0.000000e+00 -4.000000e+01 3.000000e+00
      vertex   1.050000e+01 -4.000000e+01 0.000000e+00
      vertex   1.050000e+01 -4.000000e+01 3.000000e+00
    endloop
  endfacet
  facet normal -1.000000e+00 0.000000e+00 0.000000e+00
    outer loop
      vertex   0.000000e+00 0.000000e+00 0.000000e+00
      vertex   0.000000e+00 -4.000000e+01 0.000000e+00
      vertex   0.000000e+00 0.000000e+00 3.000000e+00
    endloop
  endfacet
  facet normal -1.000000e+00 -0.000000e+00 0.000000e+00
    outer loop
      vertex   0.000000e+00 0.000000e+00 3.000000e+00
      vertex   0.000000e+00 -4.000000e+01 0.000000e+00
      vertex   0.000000e+00 -4.000000e+01 3.000000e+00
    endloop
  endfacet
  facet normal 0.000000e+00 1.000000e+00 -0.000000e+00
    outer loop
      vertex   1.050000e+01 0.000000e+00 0.000000e+00
      vertex   0.000000e+00 0.000000e+00 0.000000e+00
      vertex   1.050000e+01 0.000000e+00 3.000000e+00
    endloop
  endfacet
  facet normal 0.000000e+00 1.000000e+00 0.000000e+00
    outer loop
      vertex   1.050000e+01 0.000000e+00 3.000000e+00
      vertex   0.000000e+00 0.000000e+00 0.000000e+00
      vertex   0.000000e+00 0.000000e+00 3.000000e+00
    endloop
  endfacet
  facet normal 0.000000e+00 0.000000e+00 1.000000e+00
    outer loop
      vertex   2.508217e+00 -1.984321e+01 3.000000e+00
      vertex   0.000000e+00 0.000000e+00 3.000000e+00
      vertex   2.500000e+00 -2.000000e+01 3.000000e+00
    endloop
  endfacet
  facet normal 0.000000e+00 0.000000e+00 1.000000e+00
    outer loop
      vertex   2.500000e+00 -2.000000e+01 3.000000e+00
      vertex   0.000000e+00 0.000000e+00 3.000000e+00
      vertex   0.000000e+00 -4.000000e+01 3.000000e+00
    endloop
  endfacet
  facet normal 0.000000e+00 0.000000e+00 1.000000e+00
    outer loop
      vertex   2.500000e+00 -2.000000e+01 3.000000e+00
      vertex   0.000000e+00 -4.000000e+01 3.000000e+00
      vertex   2.508217e+00 -2.015679e+01 3.000000e+00
    endloop
  endfacet
  facet normal 0.000000e+00 0.000000e+00 1.000000e+00
    outer loop
      vertex   2.508217e+00 -2.015679e+01 3.000000e+00
      vertex   0.000000e+00 -4.000000e+01 3.000000e+00
      vertex   2.532779e+00 -2.031187e+01 3.000000e+00
    endloop
  endfacet
  facet normal 0.000000e+00 0.000000e+00 1.000000e+00
    outer loop
      vertex   2.532779e+00 -2.031187e+01 3.000000e+00
      vertex   0.000000e+00 -4.000000e+01 3.000000e+00
      vertex   2.573415e+00 -2.046353e+01 3.000000e+00
    endloop
  endfacet
  facet normal 0.000000e+00 0.000000e+00 1.000000e+00
    outer loop
      vertex   2.573415e+00 -2.046353e+01 3.000000e+00
      vertex   0.000000e+00 -4.000000e+01 3.000000e+00
      vertex   2.629682e+00 -2.061010e+01 3.000000e+00
    endloop
  endfacet
  facet normal 0.000000e+00 0.000000e+00 1.000000e+00
    outer loop
      vertex   2.629682e+00 -2.061010e+01 3.000000e+00
      vertex   0.000000e+00 -4.000000e+01 3.000000e+00
      vertex   2.700962e+00 -2.075000e+01 3.000000e+00
    endloop
  endfacet
  facet normal 0.000000e+00 0.000000e+00 1.000000e+00
    outer loop
      vertex   2.700962e+00 -2.075000e+01 3.000000e+00
      vertex   0.000000e+00 -4.000000e+01 3.000000e+00
      vertex   2.786475e+00 -2.088168e+01 3.000000e+00
    endloop
  endfacet
  facet normal 0.000000e+00 0.000000e+00 1.000000e+00
    outer loop
      vertex   2.786475e+00 -2.088168e+01 3.000000e+00
      vertex   0.000000e+00 -4.000000e+01 3.000000e+00
      vertex   2.885283e+00 -2.100370e+01 3.000000e+00
    endloop
  endfacet
  facet normal 0.000000e+00 0.000000e+00 1.000000e+00
    outer loop
      vertex   2.885283e+00 -2.100370e+01 3.000000e+00
      vertex   0.000000e+00 -4.000000e+01 3.000000e+00
      vertex   2.996304e+00 -2.111472e+01 3.000000e+00
    endloop
  endfacet
  facet normal 0.000000e+00 0.000000e+00 1.000000e+00
    outer loop
      vertex   2.996304e+00 -2.111472e+01 3.000000e+00
      vertex   0.000000e+00 -4.000000e+01 3.000000e+00
      vertex   3.118322e+00 -2.121353e+01 3.000000e+00
    endloop
  endfacet
  facet normal 0.000000e+00 0.000000e+00 1.000000e+00
    outer loop
      vertex   3.118322e+00 -2.121353e+01 3.000000e+00
      vertex   0.000000e+00 -4.000000e+01 3.000000e+00
      vertex   3.250000e+00 -2.129904e+01 3.000000e+00
    endloop
  endfacet
  facet normal 0.000000e+00 0.000000e+00 1.000000e+00
    outer loop
      vertex   3.250000e+00 -2.129904e+01 3.000000e+00
      vertex   0.000000e+00 -4.000000e+01 3.000000e+00
      vertex   3.389895e+00 -2.137032e+01 3.000000e+00
    endloop
  endfacet
  facet normal 0.000000e+00 0.000000e+00 1.000000e+00
    outer loop
      vertex   3.389895e+00 -2.137032e+01 3.000000e+00
      vertex   0.000000e+00 -4.000000e+01 3.000000e+00
      vertex   3.536475e+00 -2.142658e+01 3.000000e+00
    endloop
  endfacet
  facet normal 0.000000e+00 0.000000e+00 1.000000e+00
    outer loop
      vertex   3.536475e+00 -2.142658e+01 3.000000e+00
      vertex   0.000000e+00 -4.000000e+01 3.000000e+00
      vertex   3.688132e+00 -2.146722e+01 3.000000e+00
    endloop
  endfacet
  facet normal 0.000000e+00 0.000000e+00 1.000000e+00
    outer loop
      vertex   3.688132e+00 -2.146722e+01 3.000000e+00
      vertex   0.000000e+00 -4.000000e+01 3.000000e+00
      vertex   3.843207e+00 -2.149178e+01 3.000000e+00
    endloop
  endfacet
  facet normal 0.000000e+00 0.000000e+00 1.000000e+00
    outer loop
      vertex   3.843207e+00 -2.149178e+01 3.000000e+00
      vertex   0.000000e+00 -4.000000e+01 3.000000e+00
      vertex   4.000000e+00 -2.150000e+01 3.000000e+00
    endloop
  endfacet
  facet normal -0.000000e+00 0.000000e+00 1.000000e+00
    outer loop
      vertex   4.000000e+00 -2.150000e+01 3.000000e+00
      vertex   0.000000e+00 -4.000000e+01 3.000000e+00
      vertex   4.156793e+00 -2.149178e+01 3.000000e+00
    endloop
  endfacet
  facet normal -0.000000e+00 0.000000e+00 1.000000e+00
    outer loop
      vertex   4.156793e+00 -2.149178e+01 3.000000e+00
      vertex   0.000000e+00 -4.000000e+01 3.000000e+00
      vertex   4.311868e+00 -2.146722e+01 3.000000e+00
    endloop
  endfacet
  facet normal -0.000000e+00 0.000000e+00 1.000000e+00
    outer loop
      vertex   4.311868e+00 -2.146722e+01 3.000000e+00
      vertex   0.000000e+00 -4.000000e+01 3.000000e+00
      vertex   4.463525e+00 -2.142658e+01 3.000000e+00
    endloop
  endfacet
  facet normal -0.000000e+00 0.000000e+00 1.000000e+00
    outer loop
      vertex   4.463525e+00 -2.142658e+01 3.000000e+00
      vertex   0.000000e+00 -4.000000e+01 3.000000e+00
      vertex   4.610105e+00 -2.137032e+01 3.000000e+00
    endloop
  endfacet
  facet normal 0.000000e+00 0.000000e+00 1.000000e+00
    outer loop
      vertex   4.610105e+00 -2.137032e+01 3.000000e+00
      vertex   0.000000e+00 -4.000000e+01 3.000000e+00
      vertex   1.050000e+01 -4.000000e+01 3.000000e+00
    endloop
  endfacet
  facet normal -0.000000e+00 0.000000e+00 1.000000e+00
    outer loop
      vertex   4.610105e+00 -2.137032e+01 3.000000e+00
      vertex   1.050000e+01 -4.000000e+01 3.000000e+00
      vertex   4.750000e+00 -2.129904e+01 3.000000e+00
    endloop
  endfacet
  facet normal -0.000000e+00 0.000000e+00 1.000000e+00
    outer loop
      vertex   4.750000e+00 -2.129904e+01 3.000000e+00
      vertex   1.050000e+01 -4.000000e+01 3.000000e+00
      vertex   4.881678e+00 -2.121353e+01 3.000000e+00
    endloop
  endfacet
  facet normal -0.000000e+00 0.000000e+00 1.000000e+00
    outer loop
      vertex   4.881678e+00 -2.121353e+01 3.000000e+00
      vertex   1.050000e+01 -4.000000e+01 3.000000e+00
      vertex   5.003696e+00 -2.111472e+01 3.000000e+00
    endloop
  endfacet
  facet normal -0.000000e+00 0.000000e+00 1.000000e+00
    outer loop
      vertex   5.003696e+00 -2.111472e+01 3.000000e+00
      vertex   1.050000e+01 -4.000000e+01 3.000000e+00
      vertex   5.114717e+00 -2.100370e+01 3.000000e+00
    endloop
  endfacet
  facet normal -0.000000e+00 0.000000e+00 1.000000e+00
    outer loop
      vertex   5.114717e+00 -2.100370e+01 3.000000e+00
      vertex   1.050000e+01 -4.000000e+01 3.000000e+00
      vertex   5.213525e+00 -2.088168e+01 3.000000e+00
    endloop
  endfacet
  facet normal -0.000000e+00 0.000000e+00 1.000000e+00
    outer loop
      vertex   5.213525e+00 -2.088168e+01 3.000000e+00
      vertex   1.050000e+01 -4.000000e+01 3.000000e+00
      vertex   5.299038e+00 -2.075000e+01 3.000000e+00
    endloop
  endfacet
  facet normal -0.000000e+00 0.000000e+00 1.000000e+00
    outer loop
      vertex   5.299038e+00 -2.075000e+01 3.000000e+00
      vertex   1.050000e+01 -4.000000e+01 3.000000e+00
      vertex   5.370318e+00 -2.061010e+01 3.000000e+00
    endloop
  endfacet
  facet normal -0.000000e+00 0.000000e+00 1.000000e+00
    outer loop
      vertex   5.370318e+00 -2.061010e+01 3.000000e+00
      vertex   1.050000e+01 -4.000000e+01 3.000000e+00
      vertex   5.426585e+00 -2.046353e+01 3.000000e+00
    endloop
  endfacet
  facet normal -0.000000e+00 0.000000e+00 1.000000e+00
    outer loop
      vertex   5.426585e+00 -2.046353e+01 3.000000e+00
      vertex   1.050000e+01 -4.000000e+01 3.000000e+00
      vertex   5.467221e+00 -2.031187e+01 3.000000e+00
    endloop
  endfacet
  facet normal -0.000000e+00 0.000000e+00 1.000000e+00
    outer loop
      vertex   5.467221e+00 -2.031187e+01 3.000000e+00
      vertex   1.050000e+01 -4.000000e+01 3.000000e+00
      vertex   5.491783e+00 -2.015679e+01 3.000000e+00
    endloop
  endfacet
  facet normal -0.000000e+00 0.000000e+00 1.000000e+00
    outer loop
      vertex   5.491783e+00 -2.015679e+01 3.000000e+00
      vertex   1.050000e+01 -4.000000e+01 3.000000e+00
      vertex   5.500000e+00 -2.000000e+01 3.000000e+00
    endloop
  endfacet
  facet normal -0.000000e+00 0.000000e+00 1.000000e+00
    outer loop
      vertex   5.500000e+00 -2.000000e+01 3.000000e+00
      vertex   1.050000e+01 -4.000000e+01 3.000000e+00
      vertex   1.050000e+01 0.000000e+00 3.000000e+00
    endloop
  endfacet
  facet normal 0.000000e+00 -0.000000e+00 1.000000e+00
    outer loop
      vertex   5.500000e+00 -2.000000e+01 3.000000e+00
      vertex   1.050000e+01 0.000000e+00 3.000000e+00
      vertex   5.491783e+00 -1.984321e+01 3.000000e+00
    endloop
  endfacet
  facet normal 0.000000e+00 -0.000000e+00 1.000000e+00
    outer loop
      vertex   5.491783e+00 -1.984321e+01 3.000000e+00
      vertex   1.050000e+01 0.000000e+00 3.000000e+00
      vertex   5.467221e+00 -1.968813e+01 3.000000e+00
    endloop
  endfacet
  facet normal 0.000000e+00 -0.000000e+00 1.000000e+00
    outer loop
      vertex   5.467221e+00 -1.968813e+01 3.000000e+00
      vertex   1.050000e+01 0.000000e+00 3.000000e+00
      vertex   5.426585e+00 -1.953647e+01 3.000000e+00
    endloop
  endfacet
  facet normal 0.000000e+00 -0.000000e+00 1.000000e+00
    outer loop
      vertex   5.426585e+00 -1.953647e+01 3.000000e+00
      vertex   1.050000e+01 0.000000e+00 3.000000e+00
      vertex   5.370318e+00 -1.938990e+01 3.000000e+00
    endloop
  endfacet
  facet normal 0.000000e+00 -0.000000e+00 1.000000e+00
    outer loop
      vertex   5.370318e+00 -1.938990e+01 3.000000e+00
      vertex   1.050000e+01 0.000000e+00 3.000000e+00
      vertex   5.299038e+00 -1.925000e+01 3.000000e+00
    endloop
  endfacet
  facet normal 0.000000e+00 -0.000000e+00 1.000000e+00
    outer loop
      vertex   5.299038e+00 -1.925000e+01 3.000000e+00
      vertex   1.050000e+01 0.000000e+00 3.000000e+00
      vertex   5.213525e+00 -1.911832e+01 3.000000e+00
    endloop
  endfacet
  facet normal 0.000000e+00 -0.000000e+00 1.000000e+00
    outer loop
      vertex   5.213525e+00 -1.911832e+01 3.000000e+00
      vertex   1.050000e+01 0.000000e+00 3.000000e+00
      vertex   5.114717e+00 -1.899630e+01 3.000000e+00
    endloop
  endfacet
  facet normal 0.000000e+00 -0.000000e+00 1.000000e+00
    outer loop
      vertex   5.114717e+00 -1.899630e+01 3.000000e+00
      vertex   1.050000e+01 0.000000e+00 3.000000e+00
      vertex   5.003696e+00 -1.888528e+01 3.000000e+00
    endloop
  endfacet
  facet normal 0.000000e+00 -0.000000e+00 1.000000e+00
    outer loop
      vertex   5.003696e+00 -1.888528e+01 3.000000e+00
      vertex   1.050000e+01 0.000000e+00 3.000000e+00
      vertex   4.881678e+00 -1.878647e+01 3.000000e+00
    endloop
  endfacet
  facet normal 0.000000e+00 -0.000000e+00 1.000000e+00
    outer loop
      vertex   4.881678e+00 -1.878647e+01 3.000000e+00
      vertex   1.050000e+01 0.000000e+00 3.000000e+00
      vertex   4.750000e+00 -1.870096e+01 3.000000e+00
    endloop
  endfacet
  facet normal 0.000000e+00 -0.000000e+00 1.000000e+00
    outer loop
      vertex   4.750000e+00 -1.870096e+01 3.000000e+00
      vertex   1.050000e+01 0.000000e+00 3.000000e+00
      vertex   4.610105e+00 -1.862968e+01 3.000000e+00
    endloop
  endfacet
  facet normal 0.000000e+00 -0.000000e+00 1.000000e+00
    outer loop
      vertex   4.610105e+00 -1.862968e+01 3.000000e+00
      vertex   1.050000e+01 0.000000e+00 3.000000e+00
      vertex   0.000000e+00 0.000000e+00 3.000000e+00
    endloop
  endfacet
  facet normal 0.000000e+00 0.000000e+00 1.000000e+00
    outer loop
      vertex   4.610105e+00 -1.862968e+01 3.000000e+00
      vertex   0.000000e+00 0.000000e+00 3.000000e+00
      vertex   4.463525e+00 -1.857342e+01 3.000000e+00
    endloop
  endfacet
  facet normal 0.000000e+00 0.000000e+00 1.000000e+00
    outer loop
      vertex   4.463525e+00 -1.857342e+01 3.000000e+00
      vertex   0.000000e+00 0.000000e+00 3.000000e+00
      vertex   4.311868e+00 -1.853278e+01 3.000000e+00
    endloop
  endfacet
  facet normal 0.000000e+00 0.000000e+00 1.000000e+00
    outer loop
      vertex   4.311868e+00 -1.853278e+01 3.000000e+00
      vertex   0.000000e+00 0.000000e+00 3.000000e+00
      vertex   4.156793e+00 -1.850822e+01 3.000000e+00
    endloop
  endfacet
  facet normal 0.000000e+00 0.000000e+00 1.000000e+00
    outer loop
      vertex   4.156793e+00 -1.850822e+01 3.000000e+00
      vertex   0.000000e+00 0.000000e+00 3.000000e+00
      vertex   4.000000e+00 -1.850000e+01 3.000000e+00
    endloop
  endfacet
  facet normal 0.000000e+00 0.000000e+00 1.000000e+00
    outer loop
      vertex   4.000000e+00 -1.850000e+01 3.000000e+00
      vertex   0.000000e+00 0.000000e+00 3.000000e+00
      vertex   3.843207e+00 -1.850822e+01 3.000000e+00
    endloop
  endfacet
  facet normal 0.000000e+00 0.000000e+00 1.000000e+00
    outer loop
      vertex   3.843207e+00 -1.850822e+01 3.000000e+00
      vertex   0.000000e+00 0.000000e+00 3.000000e+00
      vertex   3.688132e+00 -1.853278e+01 3.000000e+00
    endloop
  endfacet
  facet normal 0.000000e+00 0.000000e+00 1.000000e+00
    outer loop
      vertex   3.688132e+00 -1.853278e+01 3.000000e+00
      vertex   0.000000e+00 0.000000e+00 3.000000e+00
      vertex   3.536475e+00 -1.857342e+01 3.000000e+00
    endloop
  endfacet
  facet normal 0.000000e+00 0.000000e+00 1.000000e+00
    outer loop
      vertex   3.536475e+00 -1.857342e+01 3.000000e+00
      vertex   0.000000e+00 0.000000e+00 3.000000e+00
      vertex   3.389895e+00 -1.862968e+01 3.000000e+00
    endloop
  endfacet
  facet normal 0.000000e+00 0.000000e+00 1.000000e+00
    outer loop
      vertex   3.389895e+00 -1.862968e+01 3.000000e+00
      vertex   0.000000e+00 0.000000e+00 3.000000e+00
      vertex   3.250000e+00 -1.870096e+01 3.000000e+00
    endloop
  endfacet
  facet normal 0.000000e+00 0.000000e+00 1.000000e+00
    outer loop
      vertex   3.250000e+00 -1.870096e+01 3.000000e+00
      vertex   0.000000e+00 0.000000e+00 3.000000e+00
      vertex   3.118322e+00 -1.878647e+01 3.000000e+00
    endloop
  endfacet
  facet normal 0.000000e+00 0.000000e+00 1.000000e+00
    outer loop
      vertex   3.118322e+00 -1.878647e+01 3.000000e+00
      vertex   0.000000e+00 0.000000e+00 3.000000e+00
      vertex   2.996304e+00 -1.888528e+01 3.000000e+00
    endloop
  endfacet
  facet normal 0.000000e+00 0.000000e+00 1.000000e+00
    outer loop
      vertex   2.996304e+00 -1.888528e+01 3.000000e+00
      vertex   0.000000e+00 0.000000e+00 3.000000e+00
      vertex   2.885283e+00 -1.899630e+01 3.000000e+00
    endloop
  endfacet
  facet normal 0.000000e+00 0.000000e+00 1.000000e+00
    outer loop
      vertex   2.885283e+00 -1.899630e+01 3.000000e+00
      vertex   0.000000e+00 0.000000e+00 3.000000e+00
      vertex   2.786475e+00 -1.911832e+01 3.000000e+00
    endloop
  endfacet
  facet normal 0.000000e+00 0.000000e+00 1.000000e+00
    outer loop
      vertex   2.786475e+00 -1.911832e+01 3.000000e+00
      vertex   0.000000e+00 0.000000e+00 3.000000e+00
      vertex   2.700962e+00 -1.925000e+01 3.000000e+00
    endloop
  endfacet
  facet normal 0.000000e+00 0.000000e+00 1.000000e+00
    outer loop
      vertex   2.700962e+00 -1.925000e+01 3.000000e+00
      vertex   0.000000e+00 0.000000e+00 3.000000e+00
      vertex   2.629682e+00 -1.938990e+01 3.000000e+00
    endloop
  endfacet
  facet normal 0.000000e+00 0.000000e+00 1.000000e+00
    outer loop
      vertex   2.629682e+00 -1.938990e+01 3.000000e+00
      vertex   0.000000e+00 0.000000e+00 3.000000e+00
      vertex   2.573415e+00 -1.953647e+01 3.000000e+00
    endloop
  endfacet
  facet normal 0.000000e+00 0.000000e+00 1.000000e+00
    outer loop
      vertex   2.573415e+00 -1.953647e+01 3.000000e+00
      vertex   0.000000e+00 0.000000e+00 3.000000e+00
      vertex   2.532779e+00 -1.968813e+01 3.000000e+00
    endloop
  endfacet
  facet normal 0.000000e+00 0.000000e+00 1.000000e+00
    outer loop
      vertex   2.532779e+00 -1.968813e+01 3.000000e+00
      vertex   0.000000e+00 0.000000e+00 3.000000e+00
      vertex   2.508217e+00 -1.984321e+01 3.000000e+00
    endloop
  endfacet
  facet normal -0.000000e+00 0.000000e+00 -1.000000e+00
    outer loop
      vertex   2.508217e+00 -2.015679e+01 0.000000e+00
      vertex   0.000000e+00 -4.000000e+01 0.000000e+00
      vertex   2.500000e+00 -2.000000e+01 0.000000e+00
    endloop
  endfacet
  facet normal -0.000000e+00 0.000000e+00 -1.000000e+00
    outer loop
      vertex   2.500000e+00 -2.000000e+01 0.000000e+00
      vertex   0.000000e+00 -4.000000e+01 0.000000e+00
      vertex   0.000000e+00 0.000000e+00 0.000000e+00
    endloop
  endfacet
  facet normal 0.000000e+00 0.000000e+00 -1.000000e+00
    outer loop
      vertex   2.500000e+00 -2.000000e+01 0.000000e+00
      vertex   0.000000e+00 0.000000e+00 0.000000e+00
      vertex   2.508217e+00 -1.984321e+01 0.000000e+00
    endloop
  endfacet
  facet normal 0.000000e+00 0.000000e+00 -1.000000e+00
    outer loop
      vertex   2.508217e+00 -1.984321e+01 0.000000e+00
      vertex   0.000000e+00 0.000000e+00 0.000000e+00
      vertex   2.532779e+00 -1.968813e+01 0.000000e+00
    endloop
  endfacet
  facet normal 0.000000e+00 0.000000e+00 -1.000000e+00
    outer loop
      vertex   2.532779e+00 -1.968813e+01 0.000000e+00
      vertex   0.000000e+00 0.000000e+00 0.000000e+00
      vertex   2.573415e+00 -1.953647e+01 0.000000e+00
    endloop
  endfacet
  facet normal 0.000000e+00 0.000000e+00 -1.000000e+00
    outer loop
      vertex   2.573415e+00 -1.953647e+01 0.000000e+00
      vertex   0.000000e+00 0.000000e+00 0.000000e+00
      vertex   2.629682e+00 -1.938990e+01 0.000000e+00
    endloop
  endfacet
  facet normal 0.000000e+00 0.000000e+00 -1.000000e+00
    outer loop
      vertex   2.629682e+00 -1.938990e+01 0.000000e+00
      vertex   0.000000e+00 0.000000e+00 0.000000e+00
      vertex   2.700962e+00 -1.925000e+01 0.000000e+00
    endloop
  endfacet
  facet normal 0.000000e+00 0.000000e+00 -1.000000e+00
    outer loop
      vertex   2.700962e+00 -1.925000e+01 0.000000e+00
      vertex   0.000000e+00 0.000000e+00 0.000000e+00
      vertex   2.786475e+00 -1.911832e+01 0.000000e+00
    endloop
  endfacet
  facet normal 0.000000e+00 0.000000e+00 -1.000000e+00
    outer loop
      vertex   2.786475e+00 -1.911832e+01 0.000000e+00
      vertex   0.000000e+00 0.000000e+00 0.000000e+00
      vertex   2.885283e+00 -1.899630e+01 0.000000e+00
    endloop
  endfacet
  facet normal 0.000000e+00 0.000000e+00 -1.000000e+00
    outer loop
      vertex   2.885283e+00 -1.899630e+01 0.000000e+00
      vertex   0.000000e+00 0.000000e+00 0.000000e+00
      vertex   2.996304e+00 -1.888528e+01 0.000000e+00
    endloop
  endfacet
  facet normal 0.000000e+00 0.000000e+00 -1.000000e+00
    outer loop
      vertex   2.996304e+00 -1.888528e+01 0.000000e+00
      vertex   0.000000e+00 0.000000e+00 0.000000e+00
      vertex   3.118322e+00 -1.878647e+01 0.000000e+00
    endloop
  endfacet
  facet normal 0.000000e+00 0.000000e+00 -1.000000e+00
    outer loop
      vertex   3.118322e+00 -1.878647e+01 0.000000e+00
      vertex   0.000000e+00 0.000000e+00 0.000000e+00
      vertex   3.250000e+00 -1.870096e+01 0.000000e+00
    endloop
  endfacet
  facet normal 0.000000e+00 0.000000e+00 -1.000000e+00
    outer loop
      vertex   3.250000e+00 -1.870096e+01 0.000000e+00
      vertex   0.000000e+00 0.000000e+00 0.000000e+00
      vertex   3.389895e+00 -1.862968e+01 0.000000e+00
    endloop
  endfacet
  facet normal 0.000000e+00 0.000000e+00 -1.000000e+00
    outer loop
      vertex   3.389895e+00 -1.862968e+01 0.000000e+00
      vertex   0.000000e+00 0.000000e+00 0.000000e+00
      vertex   3.536475e+00 -1.857342e+01 0.000000e+00
    endloop
  endfacet
  facet normal 0.000000e+00 0.000000e+00 -1.000000e+00
    outer loop
      vertex   3.536475e+00 -1.857342e+01 0.000000e+00
      vertex   0.000000e+00 0.000000e+00 0.000000e+00
      vertex   3.688132e+00 -1.853278e+01 0.000000e+00
    endloop
  endfacet
  facet normal 0.000000e+00 0.000000e+00 -1.000000e+00
    outer loop
      vertex   3.688132e+00 -1.853278e+01 0.000000e+00
      vertex   0.000000e+00 0.000000e+00 0.000000e+00
      vertex   3.843207e+00 -1.850822e+01 0.000000e+00
    endloop
  endfacet
  facet normal 0.000000e+00 0.000000e+00 -1.000000e+00
    outer loop
      vertex   3.843207e+00 -1.850822e+01 0.000000e+00
      vertex   0.000000e+00 0.000000e+00 0.000000e+00
      vertex   4.000000e+00 -1.850000e+01 0.000000e+00
    endloop
  endfacet
  facet normal 0.000000e+00 0.000000e+00 -1.000000e+00
    outer loop
      vertex   4.000000e+00 -1.850000e+01 0.000000e+00
      vertex   0.000000e+00 0.000000e+00 0.000000e+00
      vertex   4.156793e+00 -1.850822e+01 0.000000e+00
    endloop
  endfacet
  facet normal 0.000000e+00 0.000000e+00 -1.000000e+00
    outer loop
      vertex   4.156793e+00 -1.850822e+01 0.000000e+00
      vertex   0.000000e+00 0.000000e+00 0.000000e+00
      vertex   4.311868e+00 -1.853278e+01 0.000000e+00
    endloop
  endfacet
  facet normal 0.000000e+00 0.000000e+00 -1.000000e+00
    outer loop
      vertex   4.311868e+00 -1.853278e+01 0.000000e+00
      vertex   0.000000e+00 0.000000e+00 0.000000e+00
      vertex   4.463525e+00 -1.857342e+01 0.000000e+00
    endloop
  endfacet
  facet normal 0.000000e+00 0.000000e+00 -1.000000e+00
    outer loop
      vertex   4.463525e+00 -1.857342e+01 0.000000e+00
      vertex   0.000000e+00 0.000000e+00 0.000000e+00
      vertex   4.610105e+00 -1.862968e+01 0.000000e+00
    endloop
  endfacet
  facet normal 0.000000e+00 0.000000e+00 -1.000000e+00
    outer loop
      vertex   4.610105e+00 -1.862968e+01 0.000000e+00
      vertex   0.000000e+00 0.000000e+00 0.000000e+00
      vertex   1.050000e+01 0.000000e+00 0.000000e+00
    endloop
  endfacet
  facet normal 0.000000e+00 0.000000e+00 -1.000000e+00
    outer loop
      vertex   4.610105e+00 -1.862968e+01 0.000000e+00
      vertex   1.050000e+01 0.000000e+00 0.000000e+00
      vertex   4.750000e+00 -1.870096e+01 0.000000e+00
    endloop
  endfacet
  facet normal 0.000000e+00 0.000000e+00 -1.000000e+00
    outer loop
      vertex   4.750000e+00 -1.870096e+01 0.000000e+00
      vertex   1.050000e+01 0.000000e+00 0.000000e+00
      vertex   4.881678e+00 -1.878647e+01 0.000000e+00
    endloop
  endfacet
  facet normal 0.000000e+00 0.000000e+00 -1.000000e+00
    outer loop
      vertex   4.881678e+00 -1.878647e+01 0.000000e+00
      vertex   1.050000e+01 0.000000e+00 0.000000e+00
      vertex   5.003696e+00 -1.888528e+01 0.000000e+00
    endloop
  endfacet
  facet normal 0.000000e+00 0.000000e+00 -1.000000e+00
    outer loop
      vertex   5.003696e+00 -1.888528e+01 0.000000e+00
      vertex   1.050000e+01 0.000000e+00 0.000000e+00
      vertex   5.114717e+00 -1.899630e+01 0.000000e+00
    endloop
  endfacet
  facet normal 0.000000e+00 0.000000e+00 -1.000000e+00
    outer loop
      vertex   5.114717e+00 -1.899630e+01 0.000000e+00
      vertex   1.050000e+01 0.000000e+00 0.000000e+00
      vertex   5.213525e+00 -1.911832e+01 0.000000e+00
    endloop
  endfacet
  facet normal 0.000000e+00 0.000000e+00 -1.000000e+00
    outer loop
      vertex   5.213525e+00 -1.911832e+01 0.000000e+00
      vertex   1.050000e+01 0.000000e+00 0.000000e+00
      vertex   5.299038e+00 -1.925000e+01 0.000000e+00
    endloop
  endfacet
  facet normal 0.000000e+00 0.000000e+00 -1.000000e+00
    outer loop
      vertex   5.299038e+00 -1.925000e+01 0.000000e+00
      vertex   1.050000e+01 0.000000e+00 0.000000e+00
      vertex   5.370318e+00 -1.938990e+01 0.000000e+00
    endloop
  endfacet
  facet normal 0.000000e+00 0.000000e+00 -1.000000e+00
    outer loop
      vertex   5.370318e+00 -1.938990e+01 0.000000e+00
      vertex   1.050000e+01 0.000000e+00 0.000000e+00
      vertex   5.426585e+00 -1.953647e+01 0.000000e+00
    endloop
  endfacet
  facet normal 0.000000e+00 0.000000e+00 -1.000000e+00
    outer loop
      vertex   5.426585e+00 -1.953647e+01 0.000000e+00
      vertex   1.050000e+01 0.000000e+00 0.000000e+00
      vertex   5.467221e+00 -1.968813e+01 0.000000e+00
    endloop
  endfacet
  facet normal 0.000000e+00 0.000000e+00 -1.000000e+00
    outer loop
      vertex   5.467221e+00 -1.968813e+01 0.000000e+00
      vertex   1.050000e+01 0.000000e+00 0.000000e+00
      vertex   5.491783e+00 -1.984321e+01 0.000000e+00
    endloop
  endfacet
  facet normal 0.000000e+00 0.000000e+00 -1.000000e+00
    outer loop
      vertex   5.491783e+00 -1.984321e+01 0.000000e+00
      vertex   1.050000e+01 0.000000e+00 0.000000e+00
      vertex   5.500000e+00 -2.000000e+01 0.000000e+00
    endloop
  endfacet
  facet normal 0.000000e+00 0.000000e+00 -1.000000e+00
    outer loop
      vertex   5.500000e+00 -2.000000e+01 0.000000e+00
      vertex   1.050000e+01 0.000000e+00 0.000000e+00
      vertex   1.050000e+01 -4.000000e+01 0.000000e+00
    endloop
  endfacet
  facet normal 0.000000e+00 -0.000000e+00 -1.000000e+00
    outer loop
      vertex   5.500000e+00 -2.000000e+01 0.000000e+00
      vertex   1.050000e+01 -4.000000e+01 0.000000e+00
      vertex   5.491783e+00 -2.015679e+01 0.000000e+00
    endloop
  endfacet
  facet normal 0.000000e+00 -0.000000e+00 -1.000000e+00
    outer loop
      vertex   5.491783e+00 -2.015679e+01 0.000000e+00
      vertex   1.050000e+01 -4.000000e+01 0.000000e+00
      vertex   5.467221e+00 -2.031187e+01 0.000000e+00
    endloop
  endfacet
  facet normal 0.000000e+00 -0.000000e+00 -1.000000e+00
    outer loop
      vertex   5.467221e+00 -2.031187e+01 0.000000e+00
      vertex   1.050000e+01 -4.000000e+01 0.000000e+00
      vertex   5.426585e+00 -2.046353e+01 0.000000e+00
    endloop
  endfacet
  facet normal 0.000000e+00 -0.000000e+00 -1.000000e+00
    outer loop
      vertex   5.426585e+00 -2.046353e+01 0.000000e+00
      vertex   1.050000e+01 -4.000000e+01 0.000000e+00
      vertex   5.370318e+00 -2.061010e+01 0.000000e+00
    endloop
  endfacet
  facet normal 0.000000e+00 -0.000000e+00 -1.000000e+00
    outer loop
      vertex   5.370318e+00 -2.061010e+01 0.000000e+00
      vertex   1.050000e+01 -4.000000e+01 0.000000e+00
      vertex   5.299038e+00 -2.075000e+01 0.000000e+00
    endloop
  endfacet
  facet normal 0.000000e+00 -0.000000e+00 -1.000000e+00
    outer loop
      vertex   5.299038e+00 -2.075000e+01 0.000000e+00
      vertex   1.050000e+01 -4.000000e+01 0.000000e+00
      vertex   5.213525e+00 -2.088168e+01 0.000000e+00
    endloop
  endfacet
  facet normal 0.000000e+00 -0.000000e+00 -1.000000e+00
    outer loop
      vertex   5.213525e+00 -2.088168e+01 0.000000e+00
      vertex   1.050000e+01 -4.000000e+01 0.000000e+00
      vertex   5.114717e+00 -2.100370e+01 0.000000e+00
    endloop
  endfacet
  facet normal 0.000000e+00 -0.000000e+00 -1.000000e+00
    outer loop
      vertex   5.114717e+00 -2.100370e+01 0.000000e+00
      vertex   1.050000e+01 -4.000000e+01 0.000000e+00
      vertex   5.003696e+00 -2.111472e+01 0.000000e+00
    endloop
  endfacet
  facet normal 0.000000e+00 -0.000000e+00 -1.000000e+00
    outer loop
      vertex   5.003696e+00 -2.111472e+01 0.000000e+00
      vertex   1.050000e+01 -4.000000e+01 0.000000e+00
      vertex   4.881678e+00 -2.121353e+01 0.000000e+00
    endloop
  endfacet
  facet normal 0.000000e+00 -0.000000e+00 -1.000000e+00
    outer loop
      vertex   4.881678e+00 -2.121353e+01 0.000000e+00
      vertex   1.050000e+01 -4.000000e+01 0.000000e+00
      vertex   4.750000e+00 -2.129904e+01 0.000000e+00
    endloop
  endfacet
  facet normal 0.000000e+00 -0.000000e+00 -1.000000e+00
    outer loop
      vertex   4.750000e+00 -2.129904e+01 0.000000e+00
      vertex   1.050000e+01 -4.000000e+01 0.000000e+00
      vertex   4.610105e+00 -2.137032e+01 0.000000e+00
    endloop
  endfacet
  facet normal 0.000000e+00 -0.000000e+00 -1.000000e+00
    outer loop
      vertex   4.610105e+00 -2.137032e+01 0.000000e+00
      vertex   1.050000e+01 -4.000000e+01 0.000000e+00
      vertex   0.000000e+00 -4.000000e+01 0.000000e+00
    endloop
  endfacet
  facet normal 0.000000e+00 0.000000e+00 -1.000000e+00
    outer loop
      vertex   4.610105e+00 -2.137032e+01 0.000000e+00
      vertex   0.000000e+00 -4.000000e+01 0.000000e+00
      vertex   4.463525e+00 -2.142658e+01 0.000000e+00
    endloop
  endfacet
  facet normal 0.000000e+00 0.000000e+00 -1.000000e+00
    outer loop
      vertex   4.463525e+00 -2.142658e+01 0.000000e+00
      vertex   0.000000e+00 -4.000000e+01 0.000000e+00
      vertex   4.311868e+00 -2.146722e+01 0.000000e+00
    endloop
  endfacet
  facet normal 0.000000e+00 0.000000e+00 -1.000000e+00
    outer loop
      vertex   4.311868e+00 -2.146722e+01 0.000000e+00
      vertex   0.000000e+00 -4.000000e+01 0.000000e+00
      vertex   4.156793e+00 -2.149178e+01 0.000000e+00
    endloop
  endfacet
  facet normal 0.000000e+00 0.000000e+00 -1.000000e+00
    outer loop
      vertex   4.156793e+00 -2.149178e+01 0.000000e+00
      vertex   0.000000e+00 -4.000000e+01 0.000000e+00
      vertex   4.000000e+00 -2.150000e+01 0.000000e+00
    endloop
  endfacet
  facet normal -0.000000e+00 0.000000e+00 -1.000000e+00
    outer loop
      vertex   4.000000e+00 -2.150000e+01 0.000000e+00
      vertex   0.000000e+00 -4.000000e+01 0.000000e+00
      vertex   3.843207e+00 -2.149178e+01 0.000000e+00
    endloop
  endfacet
  facet normal -0.000000e+00 0.000000e+00 -1.000000e+00
    outer loop
      vertex   3.843207e+00 -2.149178e+01 0.000000e+00
      vertex   0.000000e+00 -4.000000e+01 0.000000e+00
      vertex   3.688132e+00 -2.146722e+01 0.000000e+00
    endloop
  endfacet
  facet normal -0.000000e+00 0.000000e+00 -1.000000e+00
    outer loop
      vertex   3.688132e+00 -2.146722e+01 0.000000e+00
      vertex   0.000000e+00 -4.000000e+01 0.000000e+00
      vertex   3.536475e+00 -2.142658e+01 0.000000e+00
    endloop
  endfacet
  facet normal -0.000000e+00 0.000000e+00 -1.000000e+00
    outer loop
      vertex   3.536475e+00 -2.142658e+01 0.000000e+00
      vertex   0.000000e+00 -4.000000e+01 0.000000e+00
      vertex   3.389895e+00 -2.137032e+01 0.000000e+00
    endloop
  endfacet
  facet normal -0.000000e+00 0.000000e+00 -1.000000e+00
    outer loop
      vertex   3.389895e+00 -2.137032e+01 0.000000e+00
      vertex   0.000000e+00 -4.000000e+01 0.000000e+00
      vertex   3.250000e+00 -2.129904e+01 0.000000e+00
    endloop
  endfacet
  facet normal -0.000000e+00 0.000000e+00 -1.000000e+00
    outer loop
      vertex   3.250000e+00 -2.129904e+01 0.000000e+00
      vertex   0.000000e+00 -4.000000e+01 0.000000e+00
      vertex   3.118322e+00 -2.121353e+01 0.000000e+00
    endloop
  endfacet
  facet normal -0.000000e+00 0.000000e+00 -1.000000e+00
    outer loop
      vertex   3.118322e+00 -2.121353e+01 0.000000e+00
      vertex   0.000000e+00 -4.000000e+01 0.000000e+00
      vertex   2.996304e+00 -2.111472e+01 0.000000e+00
    endloop
  endfacet
  facet normal -0.000000e+00 0.000000e+00 -1.000000e+00
    outer loop
      vertex   2.996304e+00 -2.111472e+01 0.000000e+00
      vertex   0.000000e+00 -4.000000e+01 0.000000e+00
      vertex   2.885283e+00 -2.100370e+01 0.000000e+00
    endloop
  endfacet
  facet normal -0.000000e+00 0.000000e+00 -1.000000e+00
    outer loop
      vertex   2.885283e+00 -2.100370e+01 0.000000e+00
      vertex   0.000000e+00 -4.000000e+01 0.000000e+00
      vertex   2.786475e+00 -2.088168e+01 0.000000e+00
    endloop
  endfacet
  facet normal -0.000000e+00 0.000000e+00 -1.000000e+00
    outer loop
      vertex   2.786475e+00 -2.088168e+01 0.000000e+00
      vertex   0.000000e+00 -4.000000e+01 0.000000e+00
      vertex   2.700962e+00 -2.075000e+01 0.000000e+00
    endloop
  endfacet
  facet normal -0.000000e+00 0.000000e+00 -1.000000e+00
    outer loop
      vertex   2.700962e+00 -2.075000e+01 0.000000e+00
      vertex   0.000000e+00 -4.000000e+01 0.000000e+00
      vertex   2.629682e+00 -2.061010e+01 0.000000e+00
    endloop
  endfacet
  facet normal -0.000000e+00 0.000000e+00 -1.000000e+00
    outer loop
      vertex   2.629682e+00 -2.061010e+01 0.000000e+00
      vertex   0.000000e+00 -4.000000e+01 0.000000e+00
      vertex   2.573415e+00 -2.046353e+01 0.000000e+00
    endloop
  endfacet
  facet normal -0.000000e+00 0.000000e+00 -1.000000e+00
    outer loop
      vertex   2.573415e+00 -2.046353e+01 0.000000e+00
      vertex   0.000000e+00 -4.000000e+01 0.000000e+00
      vertex   2.532779e+00 -2.031187e+01 0.000000e+00
    endloop
  endfacet
  facet normal -0.000000e+00 0.000000e+00 -1.000000e+00
    outer loop
      vertex   2.532779e+00 -2.031187e+01 0.000000e+00
      vertex   0.000000e+00 -4.000000e+01 0.000000e+00
      vertex   2.508217e+00 -2.015679e+01 0.000000e+00
    endloop
  endfacet
endsolid
